<svg width="11" height="19" viewBox="0 0 11 19" fill="none" xmlns="http://www.w3.org/2000/svg">
    <path d="M9.60364 16.5601C9.83832 16.8172 9.9687 17.1555 9.95566 17.5074C9.95566 17.8593 9.82528 18.1841 9.57756 18.4413C9.34288 18.6849 9.01694 18.8337 8.67796 18.8337C8.33897 18.8337 8.01303 18.7119 7.76531 18.4683L0.385909 10.8082C0.268569 10.6864 0.177304 10.5375 0.112115 10.3751C0.0469259 10.2127 0.0078125 10.0367 0.0078125 9.86081C0.0078125 9.68487 0.0469259 9.50893 0.112115 9.33299C0.177304 9.17058 0.268569 9.02171 0.385909 8.89991L7.76531 1.23976C7.88265 1.11795 8.02607 1.00968 8.18252 0.942011C8.35201 0.874342 8.5215 0.83374 8.69099 0.83374C8.86048 0.83374 9.04301 0.860808 9.19947 0.928477C9.35592 0.996146 9.49934 1.10442 9.62972 1.22622C9.74706 1.34803 9.83832 1.51043 9.90351 1.67284C9.98174 1.83524 10.0078 2.01118 10.0078 2.20066C10.0078 2.3766 9.9687 2.55254 9.90351 2.71494C9.83832 2.87735 9.73402 3.02622 9.60364 3.16156L3.14992 9.86081L4.37548 11.1195L9.60364 16.5601Z" fill="#181725"/>
</svg>
