<svg width="67" height="68" viewBox="0 0 67 68" fill="none" xmlns="http://www.w3.org/2000/svg">
    <circle cx="33.5" cy="34.236" r="33.5" fill="#53B175"/>
    <g clip-path="url(#clip0_30_174)">
        <path d="M28.9042 27.5097C28.6695 27.2526 28.5391 26.9142 28.5522 26.5623C28.5522 26.2105 28.6825 25.8856 28.9302 25.6285C29.1649 25.3849 29.4909 25.236 29.8299 25.236C30.1688 25.236 30.4948 25.3578 30.7425 25.6014L38.1219 33.2616C38.2392 33.3834 38.3305 33.5323 38.3957 33.6947C38.4609 33.8571 38.5 34.033 38.5 34.209C38.5 34.3849 38.4609 34.5608 38.3957 34.7368C38.3305 34.8992 38.2392 35.0481 38.1219 35.1699L30.7425 42.83C30.6252 42.9518 30.4817 43.0601 30.3253 43.1278C30.1558 43.1954 29.9863 43.236 29.8168 43.236C29.6473 43.236 29.4648 43.209 29.3083 43.1413C29.1519 43.0736 29.0085 42.9653 28.8781 42.8435C28.7608 42.7217 28.6695 42.5593 28.6043 42.3969C28.5261 42.2345 28.5 42.0586 28.5 41.8691C28.5 41.6932 28.5391 41.5172 28.6043 41.3548C28.6695 41.1924 28.7738 41.0435 28.9042 40.9082L35.3579 34.209L34.1323 32.9503L28.9042 27.5097Z" fill="#FFF9FF"/>
    </g>
    <defs>
        <clipPath id="clip0_30_174">
            <rect width="10" height="18" fill="white" transform="translate(38.5 43.236) rotate(-180)"/>
        </clipPath>
    </defs>
</svg>
